<mxfile host="app.diagrams.net" modified="2021-06-07T15:04:49.368Z" agent="5.0 (Macintosh; Intel Mac OS X 10_15_6) AppleWebKit/537.36 (KHTML, like Gecko) Chrome/90.0.4430.212 Safari/537.36" etag="uEyEiumw0bKFsWoX2mnj" version="14.7.4" type="github">
  <diagram id="z3m2CTt447x9VNLSq3Ph" name="Page-1">
    <mxGraphModel dx="885" dy="510" grid="1" gridSize="10" guides="1" tooltips="1" connect="1" arrows="1" fold="1" page="1" pageScale="1" pageWidth="827" pageHeight="1169" math="0" shadow="0">
      <root>
        <mxCell id="0" />
        <mxCell id="1" parent="0" />
        <mxCell id="cUxsxWvCNxt_3IrF0V__-2" value="&lt;font color=&quot;#990099&quot;&gt;&lt;span style=&quot;font-size: 16px&quot;&gt;&lt;b&gt;ID&lt;/b&gt;&lt;/span&gt;&lt;/font&gt;" style="rounded=1;whiteSpace=wrap;html=1;align=center;" vertex="1" parent="1">
          <mxGeometry x="317" y="250" width="120" height="30" as="geometry" />
        </mxCell>
        <mxCell id="cUxsxWvCNxt_3IrF0V__-3" value="&lt;font style=&quot;font-size: 14px&quot;&gt;主键ID&lt;/font&gt;" style="text;html=1;strokeColor=none;fillColor=none;align=center;verticalAlign=middle;whiteSpace=wrap;rounded=0;" vertex="1" parent="1">
          <mxGeometry x="450" y="260" width="60" height="20" as="geometry" />
        </mxCell>
        <mxCell id="cUxsxWvCNxt_3IrF0V__-4" value="&lt;font color=&quot;#990099&quot;&gt;&lt;span style=&quot;font-size: 16px&quot;&gt;&lt;b&gt;DealTime&lt;/b&gt;&lt;/span&gt;&lt;/font&gt;" style="rounded=1;whiteSpace=wrap;html=1;align=center;" vertex="1" parent="1">
          <mxGeometry x="317" y="340" width="120" height="30" as="geometry" />
        </mxCell>
        <mxCell id="cUxsxWvCNxt_3IrF0V__-5" value="&lt;span style=&quot;font-size: 14px&quot;&gt;交易时间&lt;/span&gt;" style="text;html=1;strokeColor=none;fillColor=none;align=center;verticalAlign=middle;whiteSpace=wrap;rounded=0;" vertex="1" parent="1">
          <mxGeometry x="456" y="343" width="60" height="20" as="geometry" />
        </mxCell>
        <mxCell id="cUxsxWvCNxt_3IrF0V__-6" value="&lt;font color=&quot;#990099&quot;&gt;&lt;span style=&quot;font-size: 16px&quot;&gt;&lt;b&gt;BusinessName&lt;/b&gt;&lt;/span&gt;&lt;/font&gt;" style="rounded=1;whiteSpace=wrap;html=1;align=center;" vertex="1" parent="1">
          <mxGeometry x="317" y="380" width="120" height="30" as="geometry" />
        </mxCell>
        <mxCell id="cUxsxWvCNxt_3IrF0V__-7" value="&lt;span style=&quot;font-size: 14px&quot;&gt;商户名&lt;/span&gt;" style="text;html=1;strokeColor=none;fillColor=none;align=center;verticalAlign=middle;whiteSpace=wrap;rounded=0;" vertex="1" parent="1">
          <mxGeometry x="456" y="383" width="60" height="20" as="geometry" />
        </mxCell>
        <mxCell id="cUxsxWvCNxt_3IrF0V__-8" value="&lt;font color=&quot;#990099&quot;&gt;&lt;span style=&quot;font-size: 16px&quot;&gt;&lt;b&gt;Commodity&lt;/b&gt;&lt;/span&gt;&lt;/font&gt;" style="rounded=1;whiteSpace=wrap;html=1;align=center;" vertex="1" parent="1">
          <mxGeometry x="317" y="420" width="120" height="30" as="geometry" />
        </mxCell>
        <mxCell id="cUxsxWvCNxt_3IrF0V__-9" value="&lt;span style=&quot;font-size: 14px&quot;&gt;商品名&lt;/span&gt;" style="text;html=1;strokeColor=none;fillColor=none;align=center;verticalAlign=middle;whiteSpace=wrap;rounded=0;" vertex="1" parent="1">
          <mxGeometry x="456" y="425" width="60" height="20" as="geometry" />
        </mxCell>
        <mxCell id="cUxsxWvCNxt_3IrF0V__-10" value="&lt;font color=&quot;#990099&quot;&gt;&lt;span style=&quot;font-size: 16px&quot;&gt;&lt;b&gt;DealStatus&lt;/b&gt;&lt;/span&gt;&lt;/font&gt;" style="rounded=1;whiteSpace=wrap;html=1;align=center;" vertex="1" parent="1">
          <mxGeometry x="317" y="460" width="120" height="30" as="geometry" />
        </mxCell>
        <mxCell id="cUxsxWvCNxt_3IrF0V__-11" value="&lt;span style=&quot;font-size: 14px&quot;&gt;交易状态（Y为支出，N为收入）&lt;/span&gt;" style="text;html=1;strokeColor=none;fillColor=none;align=center;verticalAlign=middle;whiteSpace=wrap;rounded=0;" vertex="1" parent="1">
          <mxGeometry x="460" y="465" width="204" height="20" as="geometry" />
        </mxCell>
        <mxCell id="cUxsxWvCNxt_3IrF0V__-12" value="&lt;font color=&quot;#990099&quot;&gt;&lt;span style=&quot;font-size: 16px&quot;&gt;&lt;b&gt;Cost&lt;/b&gt;&lt;/span&gt;&lt;/font&gt;" style="rounded=1;whiteSpace=wrap;html=1;align=center;" vertex="1" parent="1">
          <mxGeometry x="317" y="503" width="120" height="30" as="geometry" />
        </mxCell>
        <mxCell id="cUxsxWvCNxt_3IrF0V__-13" value="&lt;span style=&quot;font-size: 14px&quot;&gt;金额&lt;/span&gt;" style="text;html=1;strokeColor=none;fillColor=none;align=center;verticalAlign=middle;whiteSpace=wrap;rounded=0;" vertex="1" parent="1">
          <mxGeometry x="453" y="508" width="60" height="20" as="geometry" />
        </mxCell>
        <mxCell id="cUxsxWvCNxt_3IrF0V__-14" value="&lt;font color=&quot;#990099&quot;&gt;&lt;span style=&quot;font-size: 16px&quot;&gt;&lt;b&gt;PayWay&lt;/b&gt;&lt;/span&gt;&lt;/font&gt;" style="rounded=1;whiteSpace=wrap;html=1;align=center;" vertex="1" parent="1">
          <mxGeometry x="317" y="550" width="120" height="30" as="geometry" />
        </mxCell>
        <mxCell id="cUxsxWvCNxt_3IrF0V__-15" value="&lt;span style=&quot;font-size: 14px&quot;&gt;支付方式（银行卡OR零钱等）&lt;/span&gt;" style="text;html=1;strokeColor=none;fillColor=none;align=center;verticalAlign=middle;whiteSpace=wrap;rounded=0;" vertex="1" parent="1">
          <mxGeometry x="456" y="555" width="204" height="20" as="geometry" />
        </mxCell>
        <mxCell id="cUxsxWvCNxt_3IrF0V__-16" value="&lt;font color=&quot;#990099&quot;&gt;&lt;span style=&quot;font-size: 16px&quot;&gt;&lt;b&gt;CreateTime&lt;/b&gt;&lt;/span&gt;&lt;/font&gt;" style="rounded=1;whiteSpace=wrap;html=1;align=center;" vertex="1" parent="1">
          <mxGeometry x="317" y="590" width="120" height="30" as="geometry" />
        </mxCell>
        <mxCell id="cUxsxWvCNxt_3IrF0V__-17" value="&lt;span style=&quot;font-size: 14px&quot;&gt;创建时间&lt;/span&gt;" style="text;html=1;strokeColor=none;fillColor=none;align=center;verticalAlign=middle;whiteSpace=wrap;rounded=0;" vertex="1" parent="1">
          <mxGeometry x="456" y="595" width="74" height="20" as="geometry" />
        </mxCell>
        <mxCell id="cUxsxWvCNxt_3IrF0V__-18" value="&lt;b&gt;&lt;font color=&quot;#990099&quot; style=&quot;font-size: 14px&quot;&gt;WeChat&lt;/font&gt;&lt;/b&gt;" style="rounded=1;whiteSpace=wrap;html=1;" vertex="1" parent="1">
          <mxGeometry x="130" y="390" width="120.5" height="60" as="geometry" />
        </mxCell>
        <mxCell id="cUxsxWvCNxt_3IrF0V__-19" value="&lt;font color=&quot;#990099&quot;&gt;&lt;span style=&quot;font-size: 16px&quot;&gt;&lt;b&gt;AccountID&lt;/b&gt;&lt;/span&gt;&lt;/font&gt;" style="rounded=1;whiteSpace=wrap;html=1;align=center;" vertex="1" parent="1">
          <mxGeometry x="317" y="290" width="120" height="30" as="geometry" />
        </mxCell>
        <mxCell id="cUxsxWvCNxt_3IrF0V__-20" value="&lt;font style=&quot;font-size: 14px&quot;&gt;账号ID&lt;/font&gt;" style="text;html=1;strokeColor=none;fillColor=none;align=center;verticalAlign=middle;whiteSpace=wrap;rounded=0;" vertex="1" parent="1">
          <mxGeometry x="453" y="295" width="60" height="20" as="geometry" />
        </mxCell>
        <mxCell id="cUxsxWvCNxt_3IrF0V__-21" value="" style="endArrow=none;html=1;exitX=1;exitY=0.5;exitDx=0;exitDy=0;entryX=0;entryY=0.75;entryDx=0;entryDy=0;" edge="1" parent="1" source="cUxsxWvCNxt_3IrF0V__-18" target="cUxsxWvCNxt_3IrF0V__-2">
          <mxGeometry width="50" height="50" relative="1" as="geometry">
            <mxPoint x="410" y="500" as="sourcePoint" />
            <mxPoint x="460" y="450" as="targetPoint" />
          </mxGeometry>
        </mxCell>
        <mxCell id="cUxsxWvCNxt_3IrF0V__-22" value="" style="endArrow=none;html=1;exitX=1;exitY=0.5;exitDx=0;exitDy=0;entryX=0;entryY=0.75;entryDx=0;entryDy=0;" edge="1" parent="1" source="cUxsxWvCNxt_3IrF0V__-18" target="cUxsxWvCNxt_3IrF0V__-19">
          <mxGeometry width="50" height="50" relative="1" as="geometry">
            <mxPoint x="260.5" y="460" as="sourcePoint" />
            <mxPoint x="327" y="282.5" as="targetPoint" />
          </mxGeometry>
        </mxCell>
        <mxCell id="cUxsxWvCNxt_3IrF0V__-23" value="" style="endArrow=none;html=1;exitX=1;exitY=0.5;exitDx=0;exitDy=0;entryX=0;entryY=0.5;entryDx=0;entryDy=0;" edge="1" parent="1" source="cUxsxWvCNxt_3IrF0V__-18" target="cUxsxWvCNxt_3IrF0V__-4">
          <mxGeometry width="50" height="50" relative="1" as="geometry">
            <mxPoint x="260.5" y="460" as="sourcePoint" />
            <mxPoint x="327" y="322.5" as="targetPoint" />
          </mxGeometry>
        </mxCell>
        <mxCell id="cUxsxWvCNxt_3IrF0V__-24" value="" style="endArrow=none;html=1;exitX=1;exitY=0.5;exitDx=0;exitDy=0;entryX=0;entryY=0.5;entryDx=0;entryDy=0;" edge="1" parent="1" source="cUxsxWvCNxt_3IrF0V__-18" target="cUxsxWvCNxt_3IrF0V__-6">
          <mxGeometry width="50" height="50" relative="1" as="geometry">
            <mxPoint x="260.5" y="460" as="sourcePoint" />
            <mxPoint x="327" y="365" as="targetPoint" />
          </mxGeometry>
        </mxCell>
        <mxCell id="cUxsxWvCNxt_3IrF0V__-25" value="" style="endArrow=none;html=1;exitX=1;exitY=0.5;exitDx=0;exitDy=0;entryX=0;entryY=0.5;entryDx=0;entryDy=0;" edge="1" parent="1" source="cUxsxWvCNxt_3IrF0V__-18" target="cUxsxWvCNxt_3IrF0V__-8">
          <mxGeometry width="50" height="50" relative="1" as="geometry">
            <mxPoint x="260.5" y="460" as="sourcePoint" />
            <mxPoint x="327" y="405" as="targetPoint" />
          </mxGeometry>
        </mxCell>
        <mxCell id="cUxsxWvCNxt_3IrF0V__-26" value="" style="endArrow=none;html=1;exitX=1;exitY=0.5;exitDx=0;exitDy=0;entryX=0;entryY=0.5;entryDx=0;entryDy=0;" edge="1" parent="1" source="cUxsxWvCNxt_3IrF0V__-18" target="cUxsxWvCNxt_3IrF0V__-10">
          <mxGeometry width="50" height="50" relative="1" as="geometry">
            <mxPoint x="260.5" y="460" as="sourcePoint" />
            <mxPoint x="327" y="445" as="targetPoint" />
          </mxGeometry>
        </mxCell>
        <mxCell id="cUxsxWvCNxt_3IrF0V__-27" value="" style="endArrow=none;html=1;exitX=1;exitY=0.5;exitDx=0;exitDy=0;entryX=0;entryY=0.5;entryDx=0;entryDy=0;" edge="1" parent="1" source="cUxsxWvCNxt_3IrF0V__-18" target="cUxsxWvCNxt_3IrF0V__-12">
          <mxGeometry width="50" height="50" relative="1" as="geometry">
            <mxPoint x="260.5" y="460" as="sourcePoint" />
            <mxPoint x="327" y="485" as="targetPoint" />
          </mxGeometry>
        </mxCell>
        <mxCell id="cUxsxWvCNxt_3IrF0V__-28" value="" style="endArrow=none;html=1;exitX=1;exitY=0.5;exitDx=0;exitDy=0;entryX=0;entryY=0.25;entryDx=0;entryDy=0;" edge="1" parent="1" source="cUxsxWvCNxt_3IrF0V__-18" target="cUxsxWvCNxt_3IrF0V__-14">
          <mxGeometry width="50" height="50" relative="1" as="geometry">
            <mxPoint x="260.5" y="460" as="sourcePoint" />
            <mxPoint x="327" y="528" as="targetPoint" />
          </mxGeometry>
        </mxCell>
        <mxCell id="cUxsxWvCNxt_3IrF0V__-29" value="" style="endArrow=none;html=1;exitX=1;exitY=0.5;exitDx=0;exitDy=0;entryX=0;entryY=0.5;entryDx=0;entryDy=0;" edge="1" parent="1" source="cUxsxWvCNxt_3IrF0V__-18" target="cUxsxWvCNxt_3IrF0V__-16">
          <mxGeometry width="50" height="50" relative="1" as="geometry">
            <mxPoint x="260.5" y="460" as="sourcePoint" />
            <mxPoint x="327" y="567.5" as="targetPoint" />
          </mxGeometry>
        </mxCell>
        <mxCell id="cUxsxWvCNxt_3IrF0V__-30" value="&lt;font color=&quot;#990099&quot;&gt;&lt;span style=&quot;font-size: 16px&quot;&gt;&lt;b&gt;ID&lt;/b&gt;&lt;/span&gt;&lt;/font&gt;" style="rounded=1;whiteSpace=wrap;html=1;align=center;" vertex="1" parent="1">
          <mxGeometry x="317" y="640" width="120" height="30" as="geometry" />
        </mxCell>
        <mxCell id="cUxsxWvCNxt_3IrF0V__-31" value="&lt;font style=&quot;font-size: 14px&quot;&gt;主键ID&lt;/font&gt;" style="text;html=1;strokeColor=none;fillColor=none;align=center;verticalAlign=middle;whiteSpace=wrap;rounded=0;" vertex="1" parent="1">
          <mxGeometry x="450" y="650" width="60" height="20" as="geometry" />
        </mxCell>
        <mxCell id="cUxsxWvCNxt_3IrF0V__-32" value="&lt;font color=&quot;#990099&quot;&gt;&lt;span style=&quot;font-size: 16px&quot;&gt;&lt;b&gt;DealTime&lt;/b&gt;&lt;/span&gt;&lt;/font&gt;" style="rounded=1;whiteSpace=wrap;html=1;align=center;" vertex="1" parent="1">
          <mxGeometry x="317" y="730" width="120" height="30" as="geometry" />
        </mxCell>
        <mxCell id="cUxsxWvCNxt_3IrF0V__-33" value="&lt;span style=&quot;font-size: 14px&quot;&gt;交易时间&lt;/span&gt;" style="text;html=1;strokeColor=none;fillColor=none;align=center;verticalAlign=middle;whiteSpace=wrap;rounded=0;" vertex="1" parent="1">
          <mxGeometry x="456" y="733" width="60" height="20" as="geometry" />
        </mxCell>
        <mxCell id="cUxsxWvCNxt_3IrF0V__-34" value="&lt;font color=&quot;#990099&quot;&gt;&lt;span style=&quot;font-size: 16px&quot;&gt;&lt;b&gt;BusinessName&lt;/b&gt;&lt;/span&gt;&lt;/font&gt;" style="rounded=1;whiteSpace=wrap;html=1;align=center;" vertex="1" parent="1">
          <mxGeometry x="317" y="770" width="120" height="30" as="geometry" />
        </mxCell>
        <mxCell id="cUxsxWvCNxt_3IrF0V__-35" value="&lt;span style=&quot;font-size: 14px&quot;&gt;商户名&lt;/span&gt;" style="text;html=1;strokeColor=none;fillColor=none;align=center;verticalAlign=middle;whiteSpace=wrap;rounded=0;" vertex="1" parent="1">
          <mxGeometry x="456" y="773" width="60" height="20" as="geometry" />
        </mxCell>
        <mxCell id="cUxsxWvCNxt_3IrF0V__-36" value="&lt;font color=&quot;#990099&quot;&gt;&lt;span style=&quot;font-size: 16px&quot;&gt;&lt;b&gt;Commodity&lt;/b&gt;&lt;/span&gt;&lt;/font&gt;" style="rounded=1;whiteSpace=wrap;html=1;align=center;" vertex="1" parent="1">
          <mxGeometry x="317" y="810" width="120" height="30" as="geometry" />
        </mxCell>
        <mxCell id="cUxsxWvCNxt_3IrF0V__-37" value="&lt;span style=&quot;font-size: 14px&quot;&gt;商品名&lt;/span&gt;" style="text;html=1;strokeColor=none;fillColor=none;align=center;verticalAlign=middle;whiteSpace=wrap;rounded=0;" vertex="1" parent="1">
          <mxGeometry x="456" y="815" width="60" height="20" as="geometry" />
        </mxCell>
        <mxCell id="cUxsxWvCNxt_3IrF0V__-38" value="&lt;font color=&quot;#990099&quot;&gt;&lt;span style=&quot;font-size: 16px&quot;&gt;&lt;b&gt;DealStatus&lt;/b&gt;&lt;/span&gt;&lt;/font&gt;" style="rounded=1;whiteSpace=wrap;html=1;align=center;" vertex="1" parent="1">
          <mxGeometry x="317" y="850" width="120" height="30" as="geometry" />
        </mxCell>
        <mxCell id="cUxsxWvCNxt_3IrF0V__-39" value="&lt;span style=&quot;font-size: 14px&quot;&gt;交易状态（Y为支出，N为收入、退款，C为关闭）&lt;/span&gt;" style="text;html=1;strokeColor=none;fillColor=none;align=center;verticalAlign=middle;whiteSpace=wrap;rounded=0;" vertex="1" parent="1">
          <mxGeometry x="450" y="855" width="310" height="20" as="geometry" />
        </mxCell>
        <mxCell id="cUxsxWvCNxt_3IrF0V__-40" value="&lt;font color=&quot;#990099&quot;&gt;&lt;span style=&quot;font-size: 16px&quot;&gt;&lt;b&gt;Cost&lt;/b&gt;&lt;/span&gt;&lt;/font&gt;" style="rounded=1;whiteSpace=wrap;html=1;align=center;" vertex="1" parent="1">
          <mxGeometry x="317" y="893" width="120" height="30" as="geometry" />
        </mxCell>
        <mxCell id="cUxsxWvCNxt_3IrF0V__-41" value="&lt;span style=&quot;font-size: 14px&quot;&gt;金额&lt;/span&gt;" style="text;html=1;strokeColor=none;fillColor=none;align=center;verticalAlign=middle;whiteSpace=wrap;rounded=0;" vertex="1" parent="1">
          <mxGeometry x="453" y="898" width="60" height="20" as="geometry" />
        </mxCell>
        <mxCell id="cUxsxWvCNxt_3IrF0V__-42" value="&lt;font color=&quot;#990099&quot;&gt;&lt;span style=&quot;font-size: 16px&quot;&gt;&lt;b&gt;CostStatus&lt;/b&gt;&lt;/span&gt;&lt;/font&gt;" style="rounded=1;whiteSpace=wrap;html=1;align=center;" vertex="1" parent="1">
          <mxGeometry x="317" y="940" width="120" height="30" as="geometry" />
        </mxCell>
        <mxCell id="cUxsxWvCNxt_3IrF0V__-43" value="&lt;span style=&quot;font-size: 14px&quot;&gt;资金状态&lt;/span&gt;" style="text;html=1;strokeColor=none;fillColor=none;align=center;verticalAlign=middle;whiteSpace=wrap;rounded=0;" vertex="1" parent="1">
          <mxGeometry x="456" y="945" width="84" height="20" as="geometry" />
        </mxCell>
        <mxCell id="cUxsxWvCNxt_3IrF0V__-44" value="&lt;font color=&quot;#990099&quot;&gt;&lt;span style=&quot;font-size: 16px&quot;&gt;&lt;b&gt;CreateTime&lt;/b&gt;&lt;/span&gt;&lt;/font&gt;" style="rounded=1;whiteSpace=wrap;html=1;align=center;" vertex="1" parent="1">
          <mxGeometry x="317" y="980" width="120" height="30" as="geometry" />
        </mxCell>
        <mxCell id="cUxsxWvCNxt_3IrF0V__-45" value="&lt;span style=&quot;font-size: 14px&quot;&gt;创建时间&lt;/span&gt;" style="text;html=1;strokeColor=none;fillColor=none;align=center;verticalAlign=middle;whiteSpace=wrap;rounded=0;" vertex="1" parent="1">
          <mxGeometry x="456" y="985" width="74" height="20" as="geometry" />
        </mxCell>
        <mxCell id="cUxsxWvCNxt_3IrF0V__-46" value="&lt;b&gt;&lt;font color=&quot;#990099&quot; style=&quot;font-size: 14px&quot;&gt;AliPay&lt;/font&gt;&lt;/b&gt;" style="rounded=1;whiteSpace=wrap;html=1;" vertex="1" parent="1">
          <mxGeometry x="130" y="780" width="120.5" height="60" as="geometry" />
        </mxCell>
        <mxCell id="cUxsxWvCNxt_3IrF0V__-47" value="&lt;font color=&quot;#990099&quot;&gt;&lt;span style=&quot;font-size: 16px&quot;&gt;&lt;b&gt;AccountID&lt;/b&gt;&lt;/span&gt;&lt;/font&gt;" style="rounded=1;whiteSpace=wrap;html=1;align=center;" vertex="1" parent="1">
          <mxGeometry x="317" y="680" width="120" height="30" as="geometry" />
        </mxCell>
        <mxCell id="cUxsxWvCNxt_3IrF0V__-48" value="&lt;font style=&quot;font-size: 14px&quot;&gt;账号ID&lt;/font&gt;" style="text;html=1;strokeColor=none;fillColor=none;align=center;verticalAlign=middle;whiteSpace=wrap;rounded=0;" vertex="1" parent="1">
          <mxGeometry x="453" y="685" width="60" height="20" as="geometry" />
        </mxCell>
        <mxCell id="cUxsxWvCNxt_3IrF0V__-49" value="" style="endArrow=none;html=1;exitX=1;exitY=0.5;exitDx=0;exitDy=0;entryX=0;entryY=0.75;entryDx=0;entryDy=0;" edge="1" parent="1" source="cUxsxWvCNxt_3IrF0V__-46" target="cUxsxWvCNxt_3IrF0V__-30">
          <mxGeometry width="50" height="50" relative="1" as="geometry">
            <mxPoint x="410" y="890" as="sourcePoint" />
            <mxPoint x="460" y="840" as="targetPoint" />
          </mxGeometry>
        </mxCell>
        <mxCell id="cUxsxWvCNxt_3IrF0V__-50" value="" style="endArrow=none;html=1;exitX=1;exitY=0.5;exitDx=0;exitDy=0;entryX=0;entryY=0.75;entryDx=0;entryDy=0;" edge="1" parent="1" source="cUxsxWvCNxt_3IrF0V__-46" target="cUxsxWvCNxt_3IrF0V__-47">
          <mxGeometry width="50" height="50" relative="1" as="geometry">
            <mxPoint x="260.5" y="850" as="sourcePoint" />
            <mxPoint x="327" y="672.5" as="targetPoint" />
          </mxGeometry>
        </mxCell>
        <mxCell id="cUxsxWvCNxt_3IrF0V__-51" value="" style="endArrow=none;html=1;exitX=1;exitY=0.5;exitDx=0;exitDy=0;entryX=0;entryY=0.5;entryDx=0;entryDy=0;" edge="1" parent="1" source="cUxsxWvCNxt_3IrF0V__-46" target="cUxsxWvCNxt_3IrF0V__-32">
          <mxGeometry width="50" height="50" relative="1" as="geometry">
            <mxPoint x="260.5" y="850" as="sourcePoint" />
            <mxPoint x="327" y="712.5" as="targetPoint" />
          </mxGeometry>
        </mxCell>
        <mxCell id="cUxsxWvCNxt_3IrF0V__-52" value="" style="endArrow=none;html=1;exitX=1;exitY=0.5;exitDx=0;exitDy=0;entryX=0;entryY=0.5;entryDx=0;entryDy=0;" edge="1" parent="1" source="cUxsxWvCNxt_3IrF0V__-46" target="cUxsxWvCNxt_3IrF0V__-34">
          <mxGeometry width="50" height="50" relative="1" as="geometry">
            <mxPoint x="260.5" y="850" as="sourcePoint" />
            <mxPoint x="327" y="755" as="targetPoint" />
          </mxGeometry>
        </mxCell>
        <mxCell id="cUxsxWvCNxt_3IrF0V__-53" value="" style="endArrow=none;html=1;exitX=1;exitY=0.5;exitDx=0;exitDy=0;entryX=0;entryY=0.5;entryDx=0;entryDy=0;" edge="1" parent="1" source="cUxsxWvCNxt_3IrF0V__-46" target="cUxsxWvCNxt_3IrF0V__-36">
          <mxGeometry width="50" height="50" relative="1" as="geometry">
            <mxPoint x="260.5" y="850" as="sourcePoint" />
            <mxPoint x="327" y="795" as="targetPoint" />
          </mxGeometry>
        </mxCell>
        <mxCell id="cUxsxWvCNxt_3IrF0V__-54" value="" style="endArrow=none;html=1;exitX=1;exitY=0.5;exitDx=0;exitDy=0;entryX=0;entryY=0.5;entryDx=0;entryDy=0;" edge="1" parent="1" source="cUxsxWvCNxt_3IrF0V__-46" target="cUxsxWvCNxt_3IrF0V__-38">
          <mxGeometry width="50" height="50" relative="1" as="geometry">
            <mxPoint x="260.5" y="850" as="sourcePoint" />
            <mxPoint x="327" y="835" as="targetPoint" />
          </mxGeometry>
        </mxCell>
        <mxCell id="cUxsxWvCNxt_3IrF0V__-55" value="" style="endArrow=none;html=1;exitX=1;exitY=0.5;exitDx=0;exitDy=0;entryX=0;entryY=0.5;entryDx=0;entryDy=0;" edge="1" parent="1" source="cUxsxWvCNxt_3IrF0V__-46" target="cUxsxWvCNxt_3IrF0V__-40">
          <mxGeometry width="50" height="50" relative="1" as="geometry">
            <mxPoint x="260.5" y="850" as="sourcePoint" />
            <mxPoint x="327" y="875" as="targetPoint" />
          </mxGeometry>
        </mxCell>
        <mxCell id="cUxsxWvCNxt_3IrF0V__-56" value="" style="endArrow=none;html=1;exitX=1;exitY=0.5;exitDx=0;exitDy=0;entryX=0;entryY=0.25;entryDx=0;entryDy=0;" edge="1" parent="1" source="cUxsxWvCNxt_3IrF0V__-46" target="cUxsxWvCNxt_3IrF0V__-42">
          <mxGeometry width="50" height="50" relative="1" as="geometry">
            <mxPoint x="260.5" y="850" as="sourcePoint" />
            <mxPoint x="327" y="918" as="targetPoint" />
          </mxGeometry>
        </mxCell>
        <mxCell id="cUxsxWvCNxt_3IrF0V__-57" value="" style="endArrow=none;html=1;exitX=1;exitY=0.5;exitDx=0;exitDy=0;entryX=0;entryY=0.5;entryDx=0;entryDy=0;" edge="1" parent="1" source="cUxsxWvCNxt_3IrF0V__-46" target="cUxsxWvCNxt_3IrF0V__-44">
          <mxGeometry width="50" height="50" relative="1" as="geometry">
            <mxPoint x="260.5" y="850" as="sourcePoint" />
            <mxPoint x="327" y="957.5" as="targetPoint" />
          </mxGeometry>
        </mxCell>
      </root>
    </mxGraphModel>
  </diagram>
</mxfile>
